<svg xmlns="http://www.w3.org/2000/svg" viewBox="0 0 512 512">
  <defs><linearGradient id="g" x1="0" y1="0" x2="1" y2="1"><stop stop-color="#ff91b3"/><stop offset="1" stop-color="#ff5f8f"/></linearGradient></defs>
  <rect width="512" height="512" rx="120" fill="url(#g)"/>
  <circle cx="256" cy="258" r="150" fill="#fff7fa"/>
  <path d="M184 227c16-64 128-64 144 0 12 49-16 120-72 120s-84-71-72-120Z" fill="#ffd5e2"/>
  <circle cx="222" cy="258" r="12" fill="#3a2c32"/><circle cx="290" cy="258" r="12" fill="#3a2c32"/>
  <path d="M233 297c15 14 31 14 46 0" fill="none" stroke="#ff5f8f" stroke-width="12" stroke-linecap="round"/>
  <path d="M173 220c-31-25-40-69-2-72 25-2 38 25 40 48M339 220c31-25 40-69 2-72-25-2-38 25-40 48" fill="#ffd5e2"/>
  <path d="M352 113c14-22 45-17 48 8 3 25-27 43-48 58-21-15-51-33-48-58 3-25 34-30 48-8Z" fill="#fff"/>
</svg>
